<svg xmlns="http://www.w3.org/2000/svg" xmlns:xlink="http://www.w3.org/1999/xlink" version="1.1" x="0px" y="0px" viewBox="0 0 32 40" style="enable-background:new 0 0 32 32;" xml:space="preserve"><style type="text/css">
	.st0{display:none;}
</style><g><g><polygon points="23.5,19.4 23.5,12.6 17.7,16   "/><polygon points="13.6,19.4 13.6,12.6 7.7,16   "/><path d="M16,1C7.7,1,1,7.7,1,16s6.7,15,15,15s15-6.7,15-15S24.3,1,16,1z M25.5,20.1c0,0.6-0.3,1.1-0.8,1.4    c-0.2,0.1-0.5,0.2-0.8,0.2c-0.3,0-0.5-0.1-0.8-0.2L16,17.4c-0.2-0.1-0.3-0.3-0.5-0.4v3.2c0,0.6-0.3,1.1-0.8,1.4    c-0.2,0.1-0.5,0.2-0.8,0.2s-0.5-0.1-0.8-0.2l-7.1-4.1c-0.5-0.3-0.8-0.8-0.8-1.4s0.3-1.1,0.8-1.4l7.1-4.1c0.5-0.3,1.1-0.3,1.6,0    c0.5,0.3,0.8,0.8,0.8,1.4v3.2c0.1-0.2,0.3-0.3,0.5-0.4l7.1-4.1c0.5-0.3,1.1-0.3,1.6,0c0.5,0.3,0.8,0.8,0.8,1.4V20.1z"/></g></g></svg>
