<svg width="24" height="24" viewBox="0 0 24 24" fill="none" xmlns="http://www.w3.org/2000/svg">
<path fill-rule="evenodd" clip-rule="evenodd" d="M13.3713 5.47183L13.3713 9.83579V10.3358H13.8713L18.2353 10.3358L18.2353 9.33579L15.0784 9.33579L19.1746 5.2396L18.4675 4.53249L14.3713 8.62868L14.3713 5.47183L13.3713 5.47183Z" fill="#453C62"/>
<path fill-rule="evenodd" clip-rule="evenodd" d="M10.3358 18.2353L10.3358 13.8713V13.3713H9.83578L5.47182 13.3713L5.47182 14.3713L8.62868 14.3713L4.53248 18.4675L5.23959 19.1746L9.33578 15.0784L9.33578 18.2353L10.3358 18.2353Z" fill="#453C62"/>
<path fill-rule="evenodd" clip-rule="evenodd" d="M18.2353 13.3713L13.8713 13.3713H13.3713V13.8713L13.3713 18.2353L14.3713 18.2353L14.3713 15.0784L18.4675 19.1746L19.1746 18.4675L15.0784 14.3713L18.2353 14.3713L18.2353 13.3713Z" fill="#453C62"/>
<path fill-rule="evenodd" clip-rule="evenodd" d="M5.47183 10.3358L9.83579 10.3358H10.3358V9.83578L10.3358 5.47182L9.33579 5.47182L9.33579 8.62868L5.2396 4.53248L4.53249 5.23959L8.62868 9.33578L5.47183 9.33578L5.47183 10.3358Z" fill="#453C62"/>
</svg>
