<svg width="214" height="46" viewBox="0 0 214 46" fill="none" xmlns="http://www.w3.org/2000/svg">
<g clip-path="url(#clip0_67_1638)">
<path d="M210.246 0.469299H3.75439C1.94008 0.469299 0.469299 1.94008 0.469299 3.75439V42.2368C0.469299 44.0511 1.94008 45.5219 3.75439 45.5219H210.246C212.06 45.5219 213.531 44.0511 213.531 42.2368V3.75439C213.531 1.94008 212.06 0.469299 210.246 0.469299Z" fill="#28282C" stroke="url(#paint0_linear_67_1638)"/>
<path d="M68.5458 31.7499C68.805 31.7499 69.0151 31.5399 69.0151 31.2806V25.0251C69.0151 24.7658 68.805 24.5558 68.5458 24.5558H68.0482C67.7891 24.5558 67.5789 24.7658 67.5789 25.0251V31.2806C67.5789 31.5399 67.7891 31.7499 68.0482 31.7499H68.5458Z" fill="white"/>
<path d="M78.0929 31.7499C78.3521 31.7499 78.5622 31.5399 78.5622 31.2806V25.0251C78.5622 24.7658 78.3521 24.5558 78.0929 24.5558H77.6159C77.3567 24.5558 77.1466 24.7658 77.1466 25.0251V29.3146L74.3969 24.9907C74.2247 24.7198 73.9259 24.5558 73.6049 24.5558H72.8252C72.566 24.5558 72.3559 24.7658 72.3559 25.0251V31.2806C72.3559 31.5399 72.566 31.7499 72.8252 31.7499H73.3023C73.5615 31.7499 73.7716 31.5399 73.7716 31.2806V26.646L76.9361 31.5356C77.0225 31.6693 77.1709 31.7499 77.33 31.7499H78.0929Z" fill="white"/>
<path d="M86.7765 25.885C87.0358 25.885 87.2458 25.6748 87.2458 25.4157V25.0251C87.2458 24.7658 87.0358 24.5558 86.7765 24.5558H81.6935C81.4342 24.5558 81.2242 24.7658 81.2242 25.0251V25.4157C81.2242 25.6748 81.4342 25.885 81.6935 25.885H83.522V31.2806C83.522 31.5399 83.7322 31.7499 83.9913 31.7499H84.4787C84.7378 31.7499 84.948 31.5399 84.948 31.2806V25.885H86.7765Z" fill="white"/>
<path d="M93.9892 31.7499C94.2492 31.7499 94.4585 31.5399 94.4585 31.2806V30.9001C94.4585 30.641 94.2492 30.4308 93.9892 30.4308H91.3199V28.7667H93.6921C93.9516 28.7667 94.1619 28.5566 94.1619 28.2974V27.9879C94.1619 27.7288 93.9516 27.5186 93.6921 27.5186H91.3199V25.8749H93.9892C94.2492 25.8749 94.4585 25.6647 94.4585 25.4056V25.0251C94.4585 24.7658 94.2492 24.5558 93.9892 24.5558H90.3735C90.1143 24.5558 89.9042 24.7658 89.9042 25.0251V31.2806C89.9042 31.5399 90.1143 31.7499 90.3735 31.7499H93.9892Z" fill="white"/>
<path d="M100.946 31.4955C101.026 31.6517 101.187 31.7499 101.363 31.7499H101.876C102.23 31.7499 102.457 31.3734 102.291 31.0609L101.097 28.8073C102.051 28.5333 102.646 27.7723 102.646 26.7677C102.646 25.5197 101.744 24.5558 100.328 24.5558H97.9557C97.6966 24.5558 97.4864 24.7658 97.4864 25.0251V31.2806C97.4864 31.5399 97.6966 31.7499 97.9557 31.7499H98.4428C98.7019 31.7499 98.9121 31.5399 98.9121 31.2806V28.9798H99.6508L100.946 31.4955ZM98.9121 27.7723V25.7734H100.061C100.779 25.7734 101.199 26.1691 101.199 26.7779C101.199 27.3665 100.779 27.7723 100.061 27.7723H98.9121Z" fill="white"/>
<path d="M111.326 31.7499C111.585 31.7499 111.795 31.5399 111.795 31.2806V25.0251C111.795 24.7658 111.585 24.5558 111.326 24.5558H110.849C110.59 24.5558 110.38 24.7658 110.38 25.0251V29.3146L107.63 24.9907C107.458 24.7198 107.16 24.5558 106.839 24.5558H106.059C105.8 24.5558 105.589 24.7658 105.589 25.0251V31.2806C105.589 31.5399 105.8 31.7499 106.059 31.7499H106.535C106.794 31.7499 107.005 31.5399 107.005 31.2806V26.646L110.17 31.5356C110.256 31.6693 110.404 31.7499 110.563 31.7499H111.326Z" fill="white"/>
<path d="M119.23 31.7499C119.489 31.7499 119.699 31.5399 119.699 31.2806V30.9001C119.699 30.641 119.489 30.4308 119.23 30.4308H116.561V28.7667H118.932C119.191 28.7667 119.402 28.5566 119.402 28.2974V27.9879C119.402 27.7288 119.191 27.5186 118.932 27.5186H116.561V25.8749H119.23C119.489 25.8749 119.699 25.6647 119.699 25.4056V25.0251C119.699 24.7658 119.489 24.5558 119.23 24.5558H115.614C115.354 24.5558 115.145 24.7658 115.145 25.0251V31.2806C115.145 31.5399 115.354 31.7499 115.614 31.7499H119.23Z" fill="white"/>
<path d="M127.592 25.885C127.851 25.885 128.061 25.6748 128.061 25.4157V25.0251C128.061 24.7658 127.851 24.5558 127.592 24.5558H122.508C122.249 24.5558 122.039 24.7658 122.039 25.0251V25.4157C122.039 25.6748 122.249 25.885 122.508 25.885H124.337V31.2806C124.337 31.5399 124.547 31.7499 124.806 31.7499H125.294C125.553 31.7499 125.763 31.5399 125.763 31.2806V25.885H127.592Z" fill="white"/>
<path d="M137.808 31.9021C139.849 31.9021 140.896 30.5628 141.172 29.4567L139.849 29.061C139.654 29.7307 139.049 30.5323 137.808 30.5323C136.638 30.5323 135.551 29.6901 135.551 28.1579C135.551 26.5243 136.7 25.753 137.787 25.753C139.049 25.753 139.613 26.514 139.787 27.2041L141.121 26.788C140.834 25.6211 139.797 24.4035 137.787 24.4035C135.838 24.4035 134.084 25.8647 134.084 28.1579C134.084 30.4511 135.776 31.9021 137.808 31.9021Z" fill="white"/>
<path d="M144.946 28.1478C144.946 26.5243 146.095 25.753 147.213 25.753C148.341 25.753 149.49 26.5243 149.49 28.1478C149.49 29.7712 148.341 30.5424 147.213 30.5424C146.095 30.5424 144.946 29.7712 144.946 28.1478ZM143.479 28.1579C143.479 30.4714 145.243 31.9021 147.213 31.9021C149.193 31.9021 150.957 30.4714 150.957 28.1579C150.957 25.8342 149.193 24.4035 147.213 24.4035C145.243 24.4035 143.479 25.8342 143.479 28.1579Z" fill="white"/>
<path d="M161.511 31.7499C161.771 31.7499 161.98 31.5399 161.98 31.2806V25.0251C161.98 24.7658 161.771 24.5558 161.511 24.5558H160.367C160.176 24.5558 160.004 24.6706 159.932 24.8467L157.918 29.751L155.854 24.8431C155.781 24.6689 155.61 24.5558 155.421 24.5558H154.335C154.076 24.5558 153.866 24.7658 153.866 25.0251V31.2806C153.866 31.5399 154.076 31.7499 154.335 31.7499H154.751C155.01 31.7499 155.22 31.5399 155.22 31.2806V26.7475L157.192 31.4618C157.266 31.6363 157.436 31.7499 157.625 31.7499H158.18C158.369 31.7499 158.54 31.6357 158.612 31.4605L160.585 26.7069V31.2806C160.585 31.5399 160.796 31.7499 161.055 31.7499H161.511Z" fill="white"/>
<path d="M166.751 27.8332V25.7734H167.869C168.577 25.7734 169.008 26.1691 169.008 26.8084C169.008 27.4273 168.577 27.8332 167.869 27.8332H166.751ZM168.044 29.0407C169.48 29.0407 170.434 28.1071 170.434 26.7982C170.434 25.4994 169.48 24.5558 168.044 24.5558H165.795C165.536 24.5558 165.325 24.7658 165.325 25.0251V31.2806C165.325 31.5399 165.536 31.7499 165.795 31.7499H166.271C166.53 31.7499 166.741 31.5399 166.741 31.2806V29.0407H168.044Z" fill="white"/>
<path d="M175.906 31.9123C177.466 31.9123 178.707 30.9686 178.707 29.203V25.0251C178.707 24.7658 178.497 24.5558 178.238 24.5558H177.761C177.502 24.5558 177.291 24.7658 177.291 25.0251V29.1016C177.291 30.0452 176.768 30.5424 175.906 30.5424C175.065 30.5424 174.532 30.0452 174.532 29.1016V25.0251C174.532 24.7658 174.322 24.5558 174.063 24.5558H173.585C173.326 24.5558 173.116 24.7658 173.116 25.0251V29.203C173.116 30.9686 174.357 31.9123 175.906 31.9123Z" fill="white"/>
<path d="M186.857 25.885C187.116 25.885 187.326 25.6748 187.326 25.4157V25.0251C187.326 24.7658 187.116 24.5558 186.857 24.5558H181.774C181.514 24.5558 181.305 24.7658 181.305 25.0251V25.4157C181.305 25.6748 181.514 25.885 181.774 25.885H183.603V31.2806C183.603 31.5399 183.813 31.7499 184.072 31.7499H184.559C184.818 31.7499 185.028 31.5399 185.028 31.2806V25.885H186.857Z" fill="white"/>
<path d="M194.07 31.7499C194.329 31.7499 194.539 31.5399 194.539 31.2806V30.9001C194.539 30.641 194.329 30.4308 194.07 30.4308H191.4V28.7667H193.772C194.031 28.7667 194.242 28.5566 194.242 28.2974V27.9879C194.242 27.7288 194.031 27.5186 193.772 27.5186H191.4V25.8749H194.07C194.329 25.8749 194.539 25.6647 194.539 25.4056V25.0251C194.539 24.7658 194.329 24.5558 194.07 24.5558H190.453C190.194 24.5558 189.984 24.7658 189.984 25.0251V31.2806C189.984 31.5399 190.194 31.7499 190.453 31.7499H194.07Z" fill="white"/>
<path d="M201.026 31.4955C201.107 31.6517 201.268 31.7499 201.443 31.7499H201.957C202.311 31.7499 202.537 31.3734 202.372 31.0609L201.178 28.8073C202.131 28.5333 202.727 27.7723 202.727 26.7677C202.727 25.5197 201.824 24.5558 200.408 24.5558H197.567V31.2806C197.567 31.5399 197.776 31.7499 198.036 31.7499H198.523C198.783 31.7499 198.993 31.5399 198.993 31.2806V28.9798H199.731L201.026 31.4955ZM198.993 27.7723V25.7734H200.142C200.86 25.7734 201.28 26.1691 201.28 26.7779C201.28 27.3665 200.86 27.7723 200.142 27.7723H198.993Z" fill="white"/>
<path d="M68.5194 15.9008V13.1648H70.0681C71.0076 13.1648 71.5858 13.712 71.5858 14.5483C71.5858 15.3536 71.0076 15.9008 70.0681 15.9008H68.5194ZM70.2023 16.6751C71.5548 16.6751 72.4531 15.7666 72.4531 14.5379C72.4531 13.3196 71.5548 12.3904 70.2023 12.3904H67.6522V19.7105H68.5194V16.6751H70.2023ZM75.3702 14.6205C73.9455 14.6205 72.8923 15.7149 72.8923 17.2326C72.8923 18.7607 73.9455 19.8551 75.3702 19.8551C76.795 19.8551 77.8481 18.7607 77.8481 17.2326C77.8481 15.7149 76.795 14.6205 75.3702 14.6205ZM75.3702 15.3639C76.2582 15.3639 77.0222 16.035 77.0222 17.2326C77.0222 18.4406 76.2582 19.1117 75.3702 19.1117C74.4823 19.1117 73.7183 18.4406 73.7183 17.2326C73.7183 16.035 74.4823 15.3639 75.3702 15.3639ZM81.9529 14.7651L80.5901 18.6781L79.3821 14.7651H78.4942L80.1358 19.7105H81.0134L82.3762 15.7666L83.7597 19.7105H84.627L86.2376 14.7651H85.36L84.183 18.6781L82.8098 14.7651H81.9529ZM87.7543 16.7577C87.8059 16.0247 88.3841 15.3536 89.241 15.3536C90.1805 15.3536 90.6864 15.973 90.7071 16.7577H87.7543ZM90.8207 18.0483C90.6245 18.6368 90.1702 19.1117 89.3339 19.1117C88.446 19.1117 87.7336 18.4406 87.7336 17.5011V17.4598H91.5434C91.5537 17.3875 91.564 17.2739 91.564 17.1707C91.564 15.6633 90.7277 14.6205 89.2307 14.6205C87.9814 14.6205 86.887 15.6633 86.887 17.2223C86.887 18.8846 88.0124 19.8551 89.3339 19.8551C90.48 19.8551 91.2543 19.1633 91.5331 18.3064L90.8207 18.0483ZM95.4665 14.7341C95.3943 14.7135 95.2497 14.6928 95.1155 14.6928C94.5683 14.6928 93.9385 14.9303 93.6187 15.653V14.7651H92.8134V19.7105H93.6394V17.15C93.6394 16.035 94.2069 15.5601 95.0329 15.5601C95.1774 15.5601 95.3323 15.5704 95.4665 15.6117V14.7341ZM96.8585 16.7577C96.9101 16.0247 97.4883 15.3536 98.3452 15.3536C99.2847 15.3536 99.7906 15.973 99.8113 16.7577H96.8585ZM99.9249 18.0483C99.7287 18.6368 99.2744 19.1117 98.4381 19.1117C97.5502 19.1117 96.8378 18.4406 96.8378 17.5011V17.4598H100.648C100.658 17.3875 100.668 17.2739 100.668 17.1707C100.668 15.6633 99.8319 14.6205 98.3349 14.6205C97.0856 14.6205 95.9912 15.6633 95.9912 17.2223C95.9912 18.8846 97.1166 19.8551 98.4381 19.8551C99.5842 19.8551 100.358 19.1633 100.637 18.3064L99.9249 18.0483ZM105.501 18.9981C105.501 19.3182 105.532 19.597 105.553 19.7105H106.358C106.337 19.6073 106.306 19.2769 106.306 18.7813V12.2459H105.48V15.5601C105.315 15.1471 104.83 14.6205 103.88 14.6205C102.497 14.6205 101.588 15.7975 101.588 17.2326C101.588 18.6987 102.455 19.8551 103.88 19.8551C104.737 19.8551 105.274 19.3492 105.501 18.8639V18.9981ZM103.952 19.1117C103.023 19.1117 102.414 18.327 102.414 17.2326C102.414 16.1382 103.013 15.3639 103.952 15.3639C104.892 15.3639 105.501 16.1382 105.501 17.2326C105.501 18.327 104.882 19.1117 103.952 19.1117ZM111.354 19.7105V18.8949C111.643 19.4318 112.221 19.8551 113.047 19.8551C114.482 19.8551 115.319 18.7091 115.319 17.2326C115.319 15.7872 114.534 14.6205 113.068 14.6205C112.18 14.6205 111.602 15.1058 111.375 15.5704V12.2459H110.549V19.7105H111.354ZM112.923 19.1117C111.974 19.1117 111.354 18.327 111.354 17.2326C111.354 16.1382 111.963 15.3639 112.923 15.3639C113.884 15.3639 114.493 16.1382 114.493 17.2326C114.493 18.327 113.873 19.1117 112.923 19.1117ZM117.666 21.6722L120.836 14.7651H119.938L118.399 18.2651L116.768 14.7651H115.818L117.945 19.122L116.747 21.6722H117.666Z" fill="white"/>
<path d="M48.8848 11.2632C46.1069 11.2632 43.0789 12.6865 39.8784 15.4903C38.3601 16.8188 37.0487 18.2423 36.0653 19.381C36.0653 19.381 36.0653 19.381 36.0739 19.3896V19.381C36.0739 19.381 37.6267 21.0719 39.3435 22.8834C40.2666 21.7879 41.5951 20.2955 43.122 18.9497C45.9689 16.4565 47.8236 15.9302 48.8848 15.9302C52.879 15.9302 56.1227 19.0963 56.1227 22.987C56.1227 26.8518 52.8704 30.0178 48.8848 30.0437C48.7036 30.0437 48.4707 30.0178 48.1774 29.9575C49.342 30.4578 50.5929 30.8201 51.7834 30.8201C59.0989 30.8201 60.531 26.0495 60.6259 25.7045C60.8415 24.8331 60.9537 23.9187 60.9537 22.9783C60.9537 16.5255 55.5361 11.2632 48.8848 11.2632Z" fill="url(#paint1_linear_67_1638)"/>
<path d="M23.3321 34.728C26.1099 34.728 29.1379 33.3046 32.3385 30.5008C33.8568 29.1723 35.1681 27.7489 36.1515 26.6102C36.1515 26.6102 36.1515 26.6102 36.1429 26.6015V26.6102C36.1429 26.6102 34.5901 24.9193 32.8733 23.1077C31.9503 24.2033 30.6217 25.6957 29.0948 27.0415C26.2479 29.5346 24.3932 30.0609 23.3321 30.0609C19.3379 30.0523 16.0942 26.8862 16.0942 22.9955C16.0942 19.1307 19.3464 15.9647 23.3321 15.9388C23.5132 15.9388 23.7461 15.9647 24.0394 16.025C22.8748 15.5247 21.6239 15.1624 20.4334 15.1624C13.1179 15.1624 11.6945 19.933 11.591 20.2695C11.3753 21.1494 11.2632 22.0552 11.2632 22.9955C11.2632 29.4657 16.6808 34.728 23.3321 34.728Z" fill="url(#paint2_linear_67_1638)"/>
<path d="M51.7663 30.7166C48.0222 30.6217 44.1316 27.6713 43.3379 26.9381C41.2847 25.0402 36.5486 19.9073 36.1776 19.5018C32.7096 15.6111 28.008 11.2632 23.3323 11.2632H23.3236H23.315C17.6386 11.2891 12.868 15.1366 11.5912 20.2695C11.6861 19.9331 13.5581 15.0676 20.4251 15.2401C24.169 15.335 28.077 18.3285 28.8793 19.0618C30.9325 20.9597 35.6686 26.0927 36.0396 26.4981C39.5076 30.3802 44.2092 34.7281 48.8849 34.7281H48.8935H48.9022C54.5786 34.7023 59.3579 30.8547 60.626 25.7217C60.5225 26.0582 58.6418 30.8806 51.7663 30.7166Z" fill="#29ABE2"/>
</g>
<defs>
<linearGradient id="paint0_linear_67_1638" x1="30.6838" y1="6.59434" x2="44.0912" y2="68.9799" gradientUnits="userSpaceOnUse">
<stop stop-color="#A1A2A7"/>
<stop offset="1" stop-color="#565861"/>
</linearGradient>
<linearGradient id="paint1_linear_67_1638" x1="42.6022" y1="12.8103" x2="59.0113" y2="29.8025" gradientUnits="userSpaceOnUse">
<stop offset="0.21" stop-color="#F15A24"/>
<stop offset="0.6841" stop-color="#FBB03B"/>
</linearGradient>
<linearGradient id="paint2_linear_67_1638" x1="29.6146" y1="33.1808" x2="13.2055" y2="16.1887" gradientUnits="userSpaceOnUse">
<stop offset="0.21" stop-color="#ED1E79"/>
<stop offset="0.8929" stop-color="#522785"/>
</linearGradient>
<clipPath id="clip0_67_1638">
<rect width="214" height="45.9912" fill="white"/>
</clipPath>
</defs>
</svg>
