<svg width="24" height="24" viewBox="0 0 24 24" fill="none" xmlns="http://www.w3.org/2000/svg">
<path fill-rule="evenodd" clip-rule="evenodd" d="M18.8211 9.75L18.8211 5.38604L18.8211 4.88604L18.3211 4.88604L13.9571 4.88604L13.9571 5.88604L17.114 5.88604L13.0178 9.98224L13.7249 10.6893L17.8211 6.59315L17.8211 9.75L18.8211 9.75Z" fill="#453C62"/>
<path fill-rule="evenodd" clip-rule="evenodd" d="M4.88603 13.9571L4.88603 18.3211V18.8211H5.38603L9.74999 18.8211L9.74999 17.8211L6.59314 17.8211L10.6893 13.7249L9.98223 13.0178L5.88603 17.114L5.88603 13.9571L4.88603 13.9571Z" fill="#453C62"/>
<path fill-rule="evenodd" clip-rule="evenodd" d="M13.9571 18.8211L18.3211 18.8211H18.8211V18.3211L18.8211 13.9571L17.8211 13.9571L17.8211 17.114L13.7249 13.0178L13.0178 13.7249L17.114 17.8211L13.9571 17.8211L13.9571 18.8211Z" fill="#453C62"/>
<path fill-rule="evenodd" clip-rule="evenodd" d="M9.75 4.88603L5.38604 4.88603L4.88604 4.88603L4.88604 5.38603L4.88604 9.74999L5.88604 9.74999L5.88604 6.59314L9.98224 10.6893L10.6893 9.98223L6.59315 5.88603L9.75 5.88603L9.75 4.88603Z" fill="#453C62"/>
</svg>
