<svg width="81" height="24" viewBox="0 0 81 24" fill="none" xmlns="http://www.w3.org/2000/svg">
<path fill-rule="evenodd" clip-rule="evenodd" d="M72.4079 0.89124C71.8737 1.4854 71.6067 2.25336 71.6067 3.19511C71.6131 3.9454 71.8088 4.5597 72.1938 5.03799C72.372 5.26783 72.6019 5.45239 72.8649 5.57668C73.1278 5.70097 73.4164 5.76149 73.7071 5.75332C74.237 5.75332 74.6683 5.59224 75.001 5.27008C75.1642 5.11277 75.2927 4.92311 75.3783 4.71324C75.4639 4.50337 75.5047 4.27793 75.4981 4.05138C75.5076 3.82915 75.471 3.60737 75.3905 3.39999C75.3101 3.19262 75.1876 3.00415 75.0307 2.84646C74.8788 2.69649 74.6982 2.57867 74.4997 2.50002C74.3013 2.42136 74.089 2.38349 73.8756 2.38865C73.5686 2.37979 73.2657 2.46123 73.0045 2.62285C72.7693 2.76524 72.5887 2.98242 72.4916 3.23962V3.19935C72.4743 2.58821 72.6673 1.98967 73.0384 1.50377C73.403 1.0389 73.9307 0.806461 74.6217 0.806461C75.2045 0.806461 75.6372 0.968954 75.9198 1.29394C76.2024 1.61893 76.3437 2.08027 76.3437 2.67796V3.81718C76.3444 4.43465 76.5105 4.91259 76.8418 5.251C77.1731 5.58941 77.6175 5.75862 78.1749 5.75862C78.8652 5.75508 79.3845 5.50781 79.7328 5.0168C80.0811 4.52579 80.2552 3.87864 80.2552 3.07536C80.2512 2.03139 79.977 1.00623 79.4594 0.0996156H78.4643C79.0099 0.996273 79.2984 2.02573 79.2983 3.07536C79.2983 4.32938 78.927 4.95639 78.1845 4.95639C78.0583 4.9645 77.9321 4.94261 77.816 4.8925C77.7 4.8424 77.5975 4.76551 77.5169 4.66815C77.3643 4.47527 77.2879 4.20398 77.2879 3.85215V2.67796C77.2901 1.8549 77.0622 1.2028 76.6044 0.721681C76.1466 0.24056 75.4896 0 74.6333 0C73.6838 0 72.942 0.29708 72.4079 0.89124ZM72.8474 4.41268C72.8047 4.30053 72.7857 4.18077 72.7915 4.06092C72.7848 3.94017 72.8034 3.81937 72.8461 3.70623C72.8888 3.59309 72.9547 3.49011 73.0395 3.40388C73.2238 3.24989 73.4563 3.16553 73.6965 3.16553C73.9367 3.16553 74.1692 3.24989 74.3535 3.40388C74.5139 3.58413 74.6025 3.817 74.6025 4.05827C74.6025 4.29953 74.5139 4.5324 74.3535 4.71265C74.1707 4.86984 73.9376 4.95628 73.6965 4.95628C73.4554 4.95628 73.2223 4.86984 73.0395 4.71265C72.9555 4.62696 72.8901 4.52483 72.8474 4.41268ZM68.6821 2.31971C69.3179 2.31971 69.8124 2.47726 70.1657 2.79236C70.3394 2.94744 70.4768 3.13879 70.5684 3.35286C70.6599 3.56692 70.7034 3.79849 70.6956 4.03119C70.6956 4.56247 70.5331 4.98637 70.2081 5.30288C69.8831 5.61939 69.4309 5.77835 68.8516 5.77976C68.7019 5.78152 68.5523 5.7748 68.4034 5.75962V4.96376C68.5022 4.97875 68.6022 4.98514 68.7022 4.98284C69.4087 4.98284 69.7602 4.66103 69.7566 4.01742C69.7566 3.40842 69.3953 3.10357 68.6725 3.10286H68.2815V3.30103C68.2815 4.0372 68.0674 4.63771 67.6393 5.10259C67.2111 5.56746 66.5753 5.79813 65.7318 5.7946C65.0825 5.7946 64.5766 5.63528 64.2142 5.31665C64.0365 5.16105 63.8956 4.9678 63.802 4.75093C63.7083 4.53407 63.6641 4.29906 63.6727 4.06298C63.6727 3.23286 64.0475 2.69557 64.7971 2.45112V0.099563H69.2649V0.896486H68.2815V2.31971H68.6821ZM65.7381 4.99661C66.2955 4.99661 66.7039 4.84224 66.9632 4.53351C67.2225 4.22477 67.3517 3.815 67.351 3.30421V3.10604H65.6968C65.3513 3.10604 65.0843 3.18658 64.8956 3.34978C64.7982 3.43957 64.7221 3.55004 64.6729 3.6731C64.6238 3.79615 64.6028 3.92865 64.6116 4.06086C64.6046 4.19239 64.6288 4.3237 64.6824 4.44401C64.7361 4.56432 64.8175 4.67018 64.92 4.75287C65.1568 4.92525 65.4456 5.01128 65.7381 4.99661ZM65.7381 0.896486V2.31971H67.3489V0.896486H65.7381ZM4.04608 10.822L8.29987 6.04156H13.0549L8.27443 11.0499L13.4343 19.3709H8.80112L5.46295 14.0087L4.04608 15.5008V19.3709H0V0.163196H4.04608V10.822ZM22.4586 9.91282C22.0667 9.83861 21.6684 9.80312 21.2696 9.80685C19.5242 9.80685 18.1338 10.8941 18.1338 12.8165V19.3667H14.0867V6.0416H18.1338V7.78699C18.741 6.72725 20.0307 5.96636 21.5737 5.96636C21.8694 5.96684 22.1648 5.98382 22.4586 6.01722V9.91282ZM24.9218 23.9236C25.4256 23.9808 25.9324 24.0059 26.4394 23.9988C29.6006 23.9988 30.815 22.3552 31.7974 19.674L36.8841 6.04157H32.8635L30.1824 14.2365L27.4504 6.04157H23.2771L28.0067 18.7892L27.6782 19.6497C27.3242 20.56 26.7933 20.7878 25.9328 20.7878C25.5943 20.7896 25.2562 20.7641 24.9218 20.7115V23.9236ZM37.4817 0.163196H41.5288V7.38213C42.2622 6.52268 43.501 5.76391 45.1955 5.76391C47.9275 5.76391 49.6464 7.66084 49.6464 10.5698V19.3709H45.6025V11.7324C45.6025 10.3918 45.0461 9.40623 43.731 9.40623C42.6183 9.40623 41.531 10.1904 41.531 11.7578V19.3709H37.4817V0.163196ZM55.7272 11.3784C52.9242 11.7832 50.5928 12.898 50.5928 15.6534C50.5928 18.0049 52.5151 19.6242 55.2016 19.6242C56.9459 19.6242 58.261 19.0922 59.147 18.1819C59.8295 19.3201 61.3936 19.7503 63.7251 19.3709V16.3867C62.9408 16.4874 62.6876 16.285 62.6876 15.6025V10.4681C62.6876 7.3535 60.5374 5.76389 57.0476 5.76389C53.6565 5.76389 51.554 7.68731 50.9722 10.0346L54.8423 10.6164C55.0945 9.53232 55.6997 9.02682 56.8654 9.02682C58.1816 9.02682 58.7114 9.65843 58.7114 10.645V10.8729L55.7272 11.3784ZM56.38 13.908L58.7114 13.4777L58.703 14.5904C58.703 15.9564 57.4641 16.6644 56.1236 16.6644C55.1698 16.6644 54.5339 16.2097 54.5339 15.3747C54.5339 14.4378 55.3203 14.085 56.38 13.908Z" fill="#CCFF00"/>
</svg>
