<svg width="37" height="24" viewBox="0 0 37 24" fill="none" xmlns="http://www.w3.org/2000/svg">
<path fill-rule="evenodd" clip-rule="evenodd" d="M19.3786 7.55033C18.1939 8.86823 17.6016 10.5716 17.6016 12.6605C17.6157 14.3248 18.0497 15.6873 18.9038 16.7482C19.2991 17.258 19.8091 17.6674 20.3923 17.9431C20.9756 18.2188 21.6156 18.353 22.2605 18.3349C23.4358 18.3349 24.3924 17.9776 25.1305 17.263C25.4925 16.9141 25.7775 16.4934 25.9673 16.0279C26.1572 15.5624 26.2477 15.0623 26.233 14.5598C26.2541 14.0669 26.1729 13.575 25.9944 13.115C25.816 12.655 25.5443 12.237 25.1964 11.8872C24.8594 11.5546 24.4588 11.2932 24.0186 11.1187C23.5784 10.9443 23.1076 10.8603 22.6342 10.8717C21.9532 10.8521 21.2814 11.0327 20.702 11.3912C20.1804 11.707 19.7797 12.1888 19.5643 12.7593V12.6699C19.526 11.3144 19.9542 9.98675 20.7772 8.90898C21.5858 7.87785 22.7564 7.36228 24.289 7.36228C25.5819 7.36228 26.5417 7.72271 27.1685 8.44356C27.7953 9.16441 28.1088 10.1877 28.1088 11.5134V14.0403C28.1103 15.41 28.4786 16.4701 29.2135 17.2207C29.9485 17.9713 30.9342 18.3466 32.1706 18.3466C33.7016 18.3388 34.8534 17.7903 35.626 16.7012C36.3985 15.6121 36.7848 14.1767 36.7848 12.3949C36.7758 10.0793 36.1677 7.80539 35.0195 5.79443H32.8123C34.0226 7.7833 34.6626 10.0667 34.6622 12.3949C34.6622 15.1765 33.8387 16.5672 32.1918 16.5672C31.912 16.5852 31.6319 16.5367 31.3745 16.4255C31.1171 16.3144 30.8896 16.1438 30.7109 15.9279C30.3724 15.5001 30.2031 14.8983 30.2031 14.1179V11.5134C30.2078 9.68781 29.7025 8.2414 28.687 7.17423C27.6715 6.10706 26.2142 5.57347 24.3149 5.57347C22.2087 5.57347 20.5633 6.23242 19.3786 7.55033ZM20.3536 15.3612C20.2589 15.1125 20.2167 14.8468 20.2295 14.581C20.2148 14.3132 20.2561 14.0452 20.3508 13.7943C20.4455 13.5433 20.5915 13.3149 20.7796 13.1236C21.1884 12.782 21.7042 12.5949 22.2369 12.5949C22.7697 12.5949 23.2855 12.782 23.6943 13.1236C24.05 13.5234 24.2465 14.0399 24.2465 14.5751C24.2465 15.1103 24.05 15.6268 23.6943 16.0266C23.2888 16.3753 22.7717 16.567 22.2369 16.567C21.7022 16.567 21.1851 16.3753 20.7796 16.0266C20.5933 15.8365 20.4482 15.61 20.3536 15.3612ZM14.4045 11.7672C13.6209 11.0683 12.524 10.7188 11.1136 10.7188H10.2251V7.56195H12.4064V5.7943H2.4963V11.0103C0.833642 11.5525 0.00231571 12.7442 0.00231571 14.5856C-0.0166735 15.1092 0.0812748 15.6305 0.289054 16.1115C0.496832 16.5925 0.809214 17.0212 1.20347 17.3663C2.00738 18.0731 3.1294 18.4264 4.56953 18.4264C6.44061 18.4343 7.85098 17.9226 8.80062 16.8915C9.75026 15.8604 10.2251 14.5284 10.2251 12.8955V12.4559H11.0925C12.6956 12.4575 13.4971 13.1337 13.4971 14.4845C13.505 15.9121 12.7253 16.6259 11.1583 16.6259C10.9365 16.631 10.7147 16.6168 10.4954 16.5836V18.3489C10.8257 18.3825 11.1577 18.3974 11.4897 18.3935C12.7747 18.3904 13.7776 18.0378 14.4985 17.3358C15.2193 16.6337 15.5798 15.6935 15.5798 14.515C15.5971 13.9989 15.5007 13.4852 15.2976 13.0104C15.0946 12.5356 14.7896 12.1112 14.4045 11.7672ZM7.30093 15.6292C6.72582 16.314 5.82005 16.6564 4.58364 16.6564C3.93473 16.689 3.29428 16.4981 2.76898 16.1158C2.54159 15.9324 2.36101 15.6976 2.24209 15.4307C2.12317 15.1639 2.06931 14.8726 2.08495 14.5808C2.06547 14.2876 2.11196 13.9937 2.22097 13.7207C2.32998 13.4478 2.49876 13.2027 2.71491 13.0036C3.13331 12.6416 3.72566 12.463 4.49196 12.463H8.16125V12.9025C8.16281 14.0355 7.87605 14.9444 7.30093 15.6292ZM4.58364 10.7188V7.56195H8.15656V10.7188H4.58364Z" fill="#CCFF00"/>
</svg>
