<svg width="214" height="46" viewBox="0 0 214 46" fill="none" xmlns="http://www.w3.org/2000/svg">
<g clip-path="url(#clip0_70_2294)">
<path d="M210.246 0.469391H3.75439C1.94008 0.469391 0.469299 1.94046 0.469299 3.75511V42.2449C0.469299 44.0596 1.94008 45.5306 3.75439 45.5306H210.246C212.06 45.5306 213.531 44.0596 213.531 42.2449V3.75511C213.531 1.94046 212.06 0.469391 210.246 0.469391Z" fill="white" stroke="url(#paint0_linear_70_2294)"/>
<path d="M48.2159 11.2653C45.4875 11.2653 42.5133 12.689 39.3696 15.4933C37.8783 16.822 36.5903 18.2458 35.6243 19.3847C35.6243 19.3847 35.6243 19.3847 35.6329 19.3933V19.3847C35.6329 19.3847 37.1581 21.0759 38.8443 22.8878C39.751 21.7921 41.0558 20.2993 42.5557 18.9533C45.3518 16.4597 47.1737 15.9333 48.2159 15.9333C52.1391 15.9333 55.3251 19.1 55.3251 22.9914C55.3251 26.857 52.1306 30.0236 48.2159 30.0495C48.0379 30.0495 47.8092 30.0236 47.521 29.9632C48.665 30.4637 49.8936 30.826 51.0629 30.826C58.2484 30.826 59.655 26.0545 59.7482 25.7094C59.9601 24.8379 60.0702 23.9233 60.0702 22.9827C60.0702 16.5287 54.7489 11.2653 48.2159 11.2653Z" fill="url(#paint1_linear_70_2294)"/>
<path d="M23.1174 34.7346C25.8459 34.7346 28.8201 33.3109 31.9637 30.5066C33.455 29.1779 34.743 27.7541 35.709 26.6152C35.709 26.6152 35.709 26.6152 35.7005 26.6066V26.6152C35.7005 26.6152 34.1753 24.924 32.489 23.1121C31.5825 24.2079 30.2775 25.7006 28.7777 27.0467C25.9815 29.5403 24.1598 30.0666 23.1174 30.0666C19.1943 30.058 16.0082 26.8913 16.0082 22.9999C16.0082 19.1343 19.2027 15.9677 23.1174 15.9418C23.2954 15.9418 23.5242 15.9677 23.8123 16.0281C22.6684 15.5276 21.4397 15.1653 20.2704 15.1653C13.085 15.1653 11.6868 19.9368 11.5852 20.2733C11.3733 21.1534 11.2632 22.0594 11.2632 22.9999C11.2632 29.4713 16.5844 34.7346 23.1174 34.7346Z" fill="url(#paint2_linear_70_2294)"/>
<path d="M51.0461 30.7225C47.3686 30.6276 43.5471 27.6766 42.7676 26.9432C40.7509 25.0449 36.099 19.9111 35.7346 19.5055C32.3283 15.6141 27.7103 11.2653 23.1177 11.2653H23.1092H23.1007C17.5252 11.2912 12.8394 15.1395 11.5854 20.2734C11.6786 19.9369 13.5173 15.0705 20.2621 15.243C23.9397 15.3379 27.7781 18.332 28.5661 19.0654C30.5828 20.9637 35.2347 26.0977 35.5991 26.5031C39.0054 30.386 43.6234 34.7347 48.216 34.7347H48.2244H48.233C53.8084 34.7089 58.5027 30.8606 59.7483 25.7266C59.6467 26.0631 57.7994 30.8865 51.0461 30.7225Z" fill="#29ABE2"/>
<path d="M68.5458 31.756C68.805 31.756 69.0151 31.5459 69.0151 31.2866V25.0298C69.0151 24.7705 68.805 24.5604 68.5458 24.5604H68.0482C67.7891 24.5604 67.5789 24.7705 67.5789 25.0298V31.2866C67.5789 31.5459 67.7891 31.756 68.0482 31.756H68.5458Z" fill="#161617"/>
<path d="M78.0929 31.756C78.3521 31.756 78.5622 31.5459 78.5622 31.2866V25.0298C78.5622 24.7705 78.3521 24.5604 78.0929 24.5604H77.6159C77.3567 24.5604 77.1466 24.7705 77.1466 25.0298V29.3202L74.3969 24.9955C74.2247 24.7245 73.9259 24.5604 73.6049 24.5604H72.8252C72.566 24.5604 72.3559 24.7705 72.3559 25.0298V31.2866C72.3559 31.5459 72.566 31.756 72.8252 31.756H73.3023C73.5615 31.756 73.7716 31.5459 73.7716 31.2866V26.6511L76.9361 31.5416C77.0225 31.6753 77.1709 31.756 77.33 31.756H78.0929Z" fill="#161617"/>
<path d="M86.7765 25.8899C87.0358 25.8899 87.2458 25.6797 87.2458 25.4205V25.0298C87.2458 24.7705 87.0358 24.5604 86.7765 24.5604H81.6935C81.4342 24.5604 81.2242 24.7705 81.2242 25.0298V25.4205C81.2242 25.6797 81.4342 25.8899 81.6935 25.8899H83.522V31.2866C83.522 31.5459 83.7322 31.756 83.9913 31.756H84.4787C84.7378 31.756 84.948 31.5459 84.948 31.2866V25.8899H86.7765Z" fill="#161617"/>
<path d="M93.9892 31.756C94.2492 31.756 94.4585 31.5459 94.4585 31.2866V30.906C94.4585 30.6468 94.2492 30.4366 93.9892 30.4366H91.3199V28.7721H93.6921C93.9516 28.7721 94.1619 28.562 94.1619 28.3028V27.9932C94.1619 27.734 93.9516 27.5239 93.6921 27.5239H91.3199V25.8798H93.9892C94.2492 25.8798 94.4585 25.6696 94.4585 25.4104V25.0298C94.4585 24.7705 94.2492 24.5604 93.9892 24.5604H90.3735C90.1143 24.5604 89.9042 24.7705 89.9042 25.0298V31.2866C89.9042 31.5459 90.1143 31.756 90.3735 31.756H93.9892Z" fill="#161617"/>
<path d="M100.946 31.5015C101.026 31.6578 101.187 31.756 101.363 31.756H101.876C102.23 31.756 102.457 31.3794 102.291 31.0668L101.097 28.8128C102.051 28.5388 102.646 27.7776 102.646 26.7728C102.646 25.5245 101.744 24.5604 100.328 24.5604H97.9557C97.6966 24.5604 97.4864 24.7705 97.4864 25.0298V31.2866C97.4864 31.5459 97.6966 31.756 97.9557 31.756H98.4428C98.7019 31.756 98.9121 31.5459 98.9121 31.2866V28.9853H99.6508L100.946 31.5015ZM98.9121 27.7776V25.7783H100.061C100.779 25.7783 101.199 26.1741 101.199 26.783C101.199 27.3717 100.779 27.7776 100.061 27.7776H98.9121Z" fill="#161617"/>
<path d="M111.326 31.756C111.585 31.756 111.795 31.5459 111.795 31.2866V25.0298C111.795 24.7705 111.585 24.5604 111.326 24.5604H110.849C110.59 24.5604 110.38 24.7705 110.38 25.0298V29.3202L107.63 24.9955C107.458 24.7245 107.16 24.5604 106.839 24.5604H106.059C105.8 24.5604 105.589 24.7705 105.589 25.0298V31.2866C105.589 31.5459 105.8 31.756 106.059 31.756H106.535C106.794 31.756 107.005 31.5459 107.005 31.2866V26.6511L110.17 31.5416C110.256 31.6753 110.404 31.756 110.563 31.756H111.326Z" fill="#161617"/>
<path d="M119.23 31.756C119.489 31.756 119.699 31.5459 119.699 31.2866V30.906C119.699 30.6468 119.489 30.4366 119.23 30.4366H116.561V28.7721H118.932C119.191 28.7721 119.402 28.562 119.402 28.3028V27.9932C119.402 27.734 119.191 27.5239 118.932 27.5239H116.561V25.8798H119.23C119.489 25.8798 119.699 25.6696 119.699 25.4104V25.0298C119.699 24.7705 119.489 24.5604 119.23 24.5604H115.614C115.354 24.5604 115.145 24.7705 115.145 25.0298V31.2866C115.145 31.5459 115.354 31.756 115.614 31.756H119.23Z" fill="#161617"/>
<path d="M127.592 25.8899C127.851 25.8899 128.061 25.6797 128.061 25.4205V25.0298C128.061 24.7705 127.851 24.5604 127.592 24.5604H122.508C122.249 24.5604 122.039 24.7705 122.039 25.0298V25.4205C122.039 25.6797 122.249 25.8899 122.508 25.8899H124.337V31.2866C124.337 31.5459 124.547 31.756 124.806 31.756H125.294C125.553 31.756 125.763 31.5459 125.763 31.2866V25.8899H127.592Z" fill="#161617"/>
<path d="M137.808 31.9082C139.849 31.9082 140.896 30.5686 141.172 29.4624L139.849 29.0666C139.654 29.7364 139.049 30.5381 137.808 30.5381C136.638 30.5381 135.551 29.6957 135.551 28.1633C135.551 26.5293 136.7 25.7579 137.787 25.7579C139.049 25.7579 139.613 26.5191 139.787 27.2093L141.121 26.7931C140.834 25.626 139.797 24.4082 137.787 24.4082C135.838 24.4082 134.084 25.8697 134.084 28.1633C134.084 30.4569 135.776 31.9082 137.808 31.9082Z" fill="#161617"/>
<path d="M144.946 28.1531C144.946 26.5293 146.095 25.7579 147.213 25.7579C148.341 25.7579 149.49 26.5293 149.49 28.1531C149.49 29.7769 148.341 30.5482 147.213 30.5482C146.095 30.5482 144.946 29.7769 144.946 28.1531ZM143.479 28.1633C143.479 30.4773 145.243 31.9082 147.213 31.9082C149.193 31.9082 150.957 30.4773 150.957 28.1633C150.957 25.8391 149.193 24.4082 147.213 24.4082C145.243 24.4082 143.479 25.8391 143.479 28.1633Z" fill="#161617"/>
<path d="M161.511 31.756C161.771 31.756 161.98 31.5459 161.98 31.2866V25.0298C161.98 24.7705 161.771 24.5604 161.511 24.5604H160.367C160.176 24.5604 160.004 24.6753 159.932 24.8514L157.918 29.7566L155.854 24.8478C155.781 24.6736 155.61 24.5604 155.421 24.5604H154.335C154.076 24.5604 153.866 24.7705 153.866 25.0298V31.2866C153.866 31.5459 154.076 31.756 154.335 31.756H154.751C155.01 31.756 155.22 31.5459 155.22 31.2866V26.7526L157.192 31.4677C157.266 31.6424 157.436 31.756 157.625 31.756H158.18C158.369 31.756 158.54 31.6417 158.612 31.4665L160.585 26.712V31.2866C160.585 31.5459 160.796 31.756 161.055 31.756H161.511Z" fill="#161617"/>
<path d="M166.751 27.8385V25.7783H167.869C168.577 25.7783 169.008 26.1741 169.008 26.8135C169.008 27.4325 168.577 27.8385 167.869 27.8385H166.751ZM168.044 29.0462C169.48 29.0462 170.434 28.1125 170.434 26.8033C170.434 25.5043 169.48 24.5604 168.044 24.5604H165.795C165.536 24.5604 165.325 24.7705 165.325 25.0298V31.2866C165.325 31.5459 165.536 31.756 165.795 31.756H166.271C166.53 31.756 166.741 31.5459 166.741 31.2866V29.0462H168.044Z" fill="#161617"/>
<path d="M175.906 31.9184C177.466 31.9184 178.707 30.9745 178.707 29.2086V25.0298C178.707 24.7705 178.497 24.5604 178.238 24.5604H177.761C177.502 24.5604 177.291 24.7705 177.291 25.0298V29.1071C177.291 30.0509 176.768 30.5482 175.906 30.5482C175.065 30.5482 174.532 30.0509 174.532 29.1071V25.0298C174.532 24.7705 174.322 24.5604 174.063 24.5604H173.585C173.326 24.5604 173.116 24.7705 173.116 25.0298V29.2086C173.116 30.9745 174.357 31.9184 175.906 31.9184Z" fill="#161617"/>
<path d="M186.857 25.8899C187.116 25.8899 187.326 25.6797 187.326 25.4205V25.0298C187.326 24.7705 187.116 24.5604 186.857 24.5604H181.774C181.514 24.5604 181.305 24.7705 181.305 25.0298V25.4205C181.305 25.6797 181.514 25.8899 181.774 25.8899H183.603V31.2866C183.603 31.5459 183.813 31.756 184.072 31.756H184.559C184.818 31.756 185.028 31.5459 185.028 31.2866V25.8899H186.857Z" fill="#161617"/>
<path d="M194.07 31.756C194.329 31.756 194.539 31.5459 194.539 31.2866V30.906C194.539 30.6468 194.329 30.4366 194.07 30.4366H191.4V28.7721H193.772C194.031 28.7721 194.242 28.562 194.242 28.3028V27.9932C194.242 27.734 194.031 27.5239 193.772 27.5239H191.4V25.8798H194.07C194.329 25.8798 194.539 25.6696 194.539 25.4104V25.0298C194.539 24.7705 194.329 24.5604 194.07 24.5604H190.453C190.194 24.5604 189.984 24.7705 189.984 25.0298V31.2866C189.984 31.5459 190.194 31.756 190.453 31.756H194.07Z" fill="#161617"/>
<path d="M201.026 31.5015C201.107 31.6578 201.268 31.756 201.443 31.756H201.957C202.311 31.756 202.537 31.3794 202.372 31.0668L201.178 28.8128C202.131 28.5388 202.727 27.7776 202.727 26.7728C202.727 25.5245 201.824 24.5604 200.408 24.5604H197.567V31.2866C197.567 31.5459 197.776 31.756 198.036 31.756H198.523C198.783 31.756 198.993 31.5459 198.993 31.2866V28.9853H199.731L201.026 31.5015ZM198.993 27.7776V25.7783H200.142C200.86 25.7783 201.28 26.1741 201.28 26.783C201.28 27.3717 200.86 27.7776 200.142 27.7776H198.993Z" fill="#161617"/>
<path d="M68.5194 15.9038V13.1673H70.0681C71.0076 13.1673 71.5858 13.7146 71.5858 14.551C71.5858 15.3565 71.0076 15.9038 70.0681 15.9038H68.5194ZM70.2023 16.6783C71.5548 16.6783 72.4531 15.7695 72.4531 14.5407C72.4531 13.3222 71.5548 12.3928 70.2023 12.3928H67.6522V19.7143H68.5194V16.6783H70.2023ZM75.3702 14.6233C73.9455 14.6233 72.8923 15.7179 72.8923 17.2359C72.8923 18.7642 73.9455 19.8589 75.3702 19.8589C76.795 19.8589 77.8481 18.7642 77.8481 17.2359C77.8481 15.7179 76.795 14.6233 75.3702 14.6233ZM75.3702 15.3668C76.2582 15.3668 77.0222 16.038 77.0222 17.2359C77.0222 18.4441 76.2582 19.1153 75.3702 19.1153C74.4823 19.1153 73.7183 18.4441 73.7183 17.2359C73.7183 16.038 74.4823 15.3668 75.3702 15.3668ZM81.9529 14.7679L80.5901 18.6816L79.3821 14.7679H78.4942L80.1358 19.7143H81.0134L82.3762 15.7695L83.7597 19.7143H84.627L86.2376 14.7679H85.36L84.183 18.6816L82.8098 14.7679H81.9529ZM87.7543 16.7609C87.8059 16.0277 88.3841 15.3565 89.241 15.3565C90.1805 15.3565 90.6864 15.9761 90.7071 16.7609H87.7543ZM90.8207 18.0517C90.6245 18.6403 90.1702 19.1153 89.3339 19.1153C88.446 19.1153 87.7336 18.4441 87.7336 17.5044V17.4631H91.5434C91.5537 17.3908 91.564 17.2772 91.564 17.174C91.564 15.6663 90.7277 14.6233 89.2307 14.6233C87.9814 14.6233 86.887 15.6663 86.887 17.2256C86.887 18.8882 88.0124 19.8589 89.3339 19.8589C90.48 19.8589 91.2543 19.167 91.5331 18.3099L90.8207 18.0517ZM95.4665 14.7369C95.3943 14.7162 95.2497 14.6956 95.1155 14.6956C94.5683 14.6956 93.9385 14.9331 93.6187 15.656V14.7679H92.8134V19.7143H93.6394V17.1533C93.6394 16.038 94.2069 15.563 95.0329 15.563C95.1774 15.563 95.3323 15.5733 95.4665 15.6146V14.7369ZM96.8585 16.7609C96.9101 16.0277 97.4883 15.3565 98.3452 15.3565C99.2847 15.3565 99.7906 15.9761 99.8113 16.7609H96.8585ZM99.9249 18.0517C99.7287 18.6403 99.2744 19.1153 98.4381 19.1153C97.5502 19.1153 96.8378 18.4441 96.8378 17.5044V17.4631H100.648C100.658 17.3908 100.668 17.2772 100.668 17.174C100.668 15.6663 99.8319 14.6233 98.3349 14.6233C97.0856 14.6233 95.9912 15.6663 95.9912 17.2256C95.9912 18.8882 97.1166 19.8589 98.4381 19.8589C99.5842 19.8589 100.358 19.167 100.637 18.3099L99.9249 18.0517ZM105.501 19.0017C105.501 19.3219 105.532 19.6007 105.553 19.7143H106.358C106.337 19.611 106.306 19.2806 106.306 18.7849V12.2482H105.48V15.563C105.315 15.15 104.83 14.6233 103.88 14.6233C102.497 14.6233 101.588 15.8005 101.588 17.2359C101.588 18.7023 102.455 19.8589 103.88 19.8589C104.737 19.8589 105.274 19.3529 105.501 18.8675V19.0017ZM103.952 19.1153C103.023 19.1153 102.414 18.3305 102.414 17.2359C102.414 16.1413 103.013 15.3668 103.952 15.3668C104.892 15.3668 105.501 16.1413 105.501 17.2359C105.501 18.3305 104.882 19.1153 103.952 19.1153ZM111.354 19.7143V18.8985C111.643 19.4355 112.221 19.8589 113.047 19.8589C114.482 19.8589 115.319 18.7126 115.319 17.2359C115.319 15.7902 114.534 14.6233 113.068 14.6233C112.18 14.6233 111.602 15.1086 111.375 15.5733V12.2482H110.549V19.7143H111.354ZM112.923 19.1153C111.974 19.1153 111.354 18.3305 111.354 17.2359C111.354 16.1413 111.963 15.3668 112.923 15.3668C113.884 15.3668 114.493 16.1413 114.493 17.2359C114.493 18.3305 113.873 19.1153 112.923 19.1153ZM117.666 21.6763L120.836 14.7679H119.938L118.399 18.2686L116.768 14.7679H115.818L117.945 19.1257L116.747 21.6763H117.666Z" fill="black"/>
</g>
<defs>
<linearGradient id="paint0_linear_70_2294" x1="31.4706" y1="6.76471" x2="44.9524" y2="69.4844" gradientUnits="userSpaceOnUse">
<stop stop-color="#ED1E79"/>
<stop offset="1" stop-color="#522785"/>
</linearGradient>
<linearGradient id="paint1_linear_70_2294" x1="42.0451" y1="12.8128" x2="58.465" y2="29.5107" gradientUnits="userSpaceOnUse">
<stop offset="0.21" stop-color="#F15A24"/>
<stop offset="0.6841" stop-color="#FBB03B"/>
</linearGradient>
<linearGradient id="paint2_linear_70_2294" x1="29.2883" y1="33.1871" x2="12.8684" y2="16.4893" gradientUnits="userSpaceOnUse">
<stop offset="0.21" stop-color="#ED1E79"/>
<stop offset="0.8929" stop-color="#522785"/>
</linearGradient>
<clipPath id="clip0_70_2294">
<rect width="214" height="46" fill="white"/>
</clipPath>
</defs>
</svg>
